%TF.GenerationSoftware,KiCad,Pcbnew,10.0.5*%
%TF.CreationDate,2026-08-20T01:50:04-04:00*%
%TF.ProjectId,power_distribution_circuit,706f7765-725f-4646-9973-747269627574,rev?*%
%TF.SameCoordinates,Original*%
%TF.FileFunction,Copper,L2,Bot*%
%TF.FilePolarity,Positive*%
%FSLAX46Y46*%
G04 Gerber Fmt 4.6, Leading zero omitted, Abs format (unit mm)*
G04 Created by KiCad (PCBNEW 10.0.5) date 2026-08-20 01:50:04*
%MOMM*%
%LPD*%
G01*
G04 APERTURE LIST*
G04 Aperture macros list*
%AMRoundRect*
0 Rectangle with rounded corners*
0 $1 Rounding radius*
0 $2 $3 $4 $5 $6 $7 $8 $9 X,Y pos of 4 corners*
0 Add a 4 corners polygon primitive as box body*
4,1,4,$2,$3,$4,$5,$6,$7,$8,$9,$2,$3,0*
0 Add four circle primitives for the rounded corners*
1,1,$1+$1,$2,$3*
1,1,$1+$1,$4,$5*
1,1,$1+$1,$6,$7*
1,1,$1+$1,$8,$9*
0 Add four rect primitives between the rounded corners*
20,1,$1+$1,$2,$3,$4,$5,0*
20,1,$1+$1,$4,$5,$6,$7,0*
20,1,$1+$1,$6,$7,$8,$9,0*
20,1,$1+$1,$8,$9,$2,$3,0*%
G04 Aperture macros list end*
%TA.AperFunction,ComponentPad*%
%ADD10R,1.700000X1.700000*%
%TD*%
%TA.AperFunction,ComponentPad*%
%ADD11C,1.700000*%
%TD*%
%TA.AperFunction,ComponentPad*%
%ADD12RoundRect,0.249999X-1.250001X-1.250001X1.250001X-1.250001X1.250001X1.250001X-1.250001X1.250001X0*%
%TD*%
%TA.AperFunction,ComponentPad*%
%ADD13C,3.000000*%
%TD*%
G04 APERTURE END LIST*
D10*
%TO.P,J9,1,Pin_1_1*%
%TO.N,/7.4V*%
X154940000Y-86360000D03*
D11*
%TO.P,J9,2,Pin_2_2*%
%TO.N,GND*%
X154940000Y-88900000D03*
%TO.P,J9,3,Pin_3_3*%
%TO.N,+3.3V*%
X154940000Y-91440000D03*
%TO.P,J9,4,Pin_4_4*%
%TO.N,GND*%
X154940000Y-93980000D03*
%TD*%
D12*
%TO.P,J3,1,Pin_1_1*%
%TO.N,/7.4V*%
X141010000Y-74027500D03*
D13*
%TO.P,J3,2,Pin_2_2*%
%TO.N,GND*%
X146010000Y-74027500D03*
%TD*%
D10*
%TO.P,J8,1,Pin_1_1*%
%TO.N,+3.3V*%
X165100000Y-104140000D03*
D11*
%TO.P,J8,2,Pin_2_2*%
%TO.N,GND*%
X165100000Y-106680000D03*
%TD*%
D12*
%TO.P,J1,1,Pin_1_1*%
%TO.N,/7.4V*%
X117325000Y-74105000D03*
D13*
%TO.P,J1,2,Pin_2_2*%
%TO.N,GND*%
X122325000Y-74105000D03*
%TD*%
D10*
%TO.P,J2,1,Pin_1_1*%
%TO.N,+3.3V*%
X121920000Y-86360000D03*
D11*
%TO.P,J2,2,Pin_2_2*%
%TO.N,/SDA*%
X121920000Y-88900000D03*
%TO.P,J2,3,Pin_3_3*%
%TO.N,/SCL*%
X121920000Y-91440000D03*
%TO.P,J2,4,Pin_4_4*%
%TO.N,GND*%
X121920000Y-93980000D03*
%TD*%
D12*
%TO.P,J4,1,Pin_1_1*%
%TO.N,/7.4V*%
X153710000Y-74027500D03*
D13*
%TO.P,J4,2,Pin_2_2*%
%TO.N,GND*%
X158710000Y-74027500D03*
%TD*%
D10*
%TO.P,J6,1,Pin_1_1*%
%TO.N,+3.3V*%
X142240000Y-86360000D03*
D11*
%TO.P,J6,2,Pin_2_2*%
%TO.N,/SDA*%
X142240000Y-88900000D03*
%TO.P,J6,3,Pin_3_3*%
%TO.N,/SCL*%
X142240000Y-91440000D03*
%TO.P,J6,4,Pin_4_4*%
%TO.N,GND*%
X142240000Y-93980000D03*
%TD*%
D10*
%TO.P,J7,1,Pin_1_1*%
%TO.N,+3.3V*%
X114300000Y-104140000D03*
D11*
%TO.P,J7,2,Pin_2_2*%
%TO.N,GND*%
X114300000Y-106680000D03*
%TD*%
D10*
%TO.P,J5,1,Pin_1_1*%
%TO.N,+3.3V*%
X132080000Y-86360000D03*
D11*
%TO.P,J5,2,Pin_2_2*%
%TO.N,/SDA*%
X132080000Y-88900000D03*
%TO.P,J5,3,Pin_3_3*%
%TO.N,/SCL*%
X132080000Y-91440000D03*
%TO.P,J5,4,Pin_4_4*%
%TO.N,GND*%
X132080000Y-93980000D03*
%TD*%
%TA.AperFunction,Conductor*%
%TO.N,GND*%
G36*
X177242539Y-64020185D02*
G01*
X177288294Y-64072989D01*
X177299500Y-64124500D01*
X177299500Y-113675500D01*
X177279815Y-113742539D01*
X177227011Y-113788294D01*
X177175500Y-113799500D01*
X102224500Y-113799500D01*
X102157461Y-113779815D01*
X102111706Y-113727011D01*
X102100500Y-113675500D01*
X102100500Y-109098711D01*
X104829500Y-109098711D01*
X104829500Y-109341288D01*
X104861161Y-109581785D01*
X104923947Y-109816104D01*
X105016773Y-110040205D01*
X105016776Y-110040212D01*
X105138064Y-110250289D01*
X105138066Y-110250292D01*
X105138067Y-110250293D01*
X105285733Y-110442736D01*
X105285739Y-110442743D01*
X105457256Y-110614260D01*
X105457262Y-110614265D01*
X105649711Y-110761936D01*
X105859788Y-110883224D01*
X106083900Y-110976054D01*
X106318211Y-111038838D01*
X106498586Y-111062584D01*
X106558711Y-111070500D01*
X106558712Y-111070500D01*
X106801289Y-111070500D01*
X106849388Y-111064167D01*
X107041789Y-111038838D01*
X107276100Y-110976054D01*
X107500212Y-110883224D01*
X107710289Y-110761936D01*
X107902738Y-110614265D01*
X108074265Y-110442738D01*
X108221936Y-110250289D01*
X108343224Y-110040212D01*
X108436054Y-109816100D01*
X108498838Y-109581789D01*
X108530500Y-109341288D01*
X108530500Y-109098712D01*
X108530500Y-109098711D01*
X170869500Y-109098711D01*
X170869500Y-109341288D01*
X170901161Y-109581785D01*
X170963947Y-109816104D01*
X171056773Y-110040205D01*
X171056776Y-110040212D01*
X171178064Y-110250289D01*
X171178066Y-110250292D01*
X171178067Y-110250293D01*
X171325733Y-110442736D01*
X171325739Y-110442743D01*
X171497256Y-110614260D01*
X171497262Y-110614265D01*
X171689711Y-110761936D01*
X171899788Y-110883224D01*
X172123900Y-110976054D01*
X172358211Y-111038838D01*
X172538586Y-111062584D01*
X172598711Y-111070500D01*
X172598712Y-111070500D01*
X172841289Y-111070500D01*
X172889388Y-111064167D01*
X173081789Y-111038838D01*
X173316100Y-110976054D01*
X173540212Y-110883224D01*
X173750289Y-110761936D01*
X173942738Y-110614265D01*
X174114265Y-110442738D01*
X174261936Y-110250289D01*
X174383224Y-110040212D01*
X174476054Y-109816100D01*
X174538838Y-109581789D01*
X174570500Y-109341288D01*
X174570500Y-109098712D01*
X174538838Y-108858211D01*
X174476054Y-108623900D01*
X174383224Y-108399788D01*
X174261936Y-108189711D01*
X174114265Y-107997262D01*
X174114260Y-107997256D01*
X173942743Y-107825739D01*
X173942736Y-107825733D01*
X173750293Y-107678067D01*
X173750292Y-107678066D01*
X173750289Y-107678064D01*
X173540212Y-107556776D01*
X173540205Y-107556773D01*
X173316104Y-107463947D01*
X173081785Y-107401161D01*
X172841289Y-107369500D01*
X172841288Y-107369500D01*
X172598712Y-107369500D01*
X172598711Y-107369500D01*
X172358214Y-107401161D01*
X172123895Y-107463947D01*
X171899794Y-107556773D01*
X171899785Y-107556777D01*
X171689706Y-107678067D01*
X171497263Y-107825733D01*
X171497256Y-107825739D01*
X171325739Y-107997256D01*
X171325733Y-107997263D01*
X171178067Y-108189706D01*
X171056777Y-108399785D01*
X171056773Y-108399794D01*
X170963947Y-108623895D01*
X170901161Y-108858214D01*
X170869500Y-109098711D01*
X108530500Y-109098711D01*
X108498838Y-108858211D01*
X108436054Y-108623900D01*
X108343224Y-108399788D01*
X108221936Y-108189711D01*
X108074265Y-107997262D01*
X108074260Y-107997256D01*
X107902743Y-107825739D01*
X107902736Y-107825733D01*
X107710293Y-107678067D01*
X107710292Y-107678066D01*
X107710289Y-107678064D01*
X107500212Y-107556776D01*
X107500205Y-107556773D01*
X107276104Y-107463947D01*
X107041785Y-107401161D01*
X106801289Y-107369500D01*
X106801288Y-107369500D01*
X106558712Y-107369500D01*
X106558711Y-107369500D01*
X106318214Y-107401161D01*
X106083895Y-107463947D01*
X105859794Y-107556773D01*
X105859785Y-107556777D01*
X105649706Y-107678067D01*
X105457263Y-107825733D01*
X105457256Y-107825739D01*
X105285739Y-107997256D01*
X105285733Y-107997263D01*
X105138067Y-108189706D01*
X105016777Y-108399785D01*
X105016773Y-108399794D01*
X104923947Y-108623895D01*
X104861161Y-108858214D01*
X104829500Y-109098711D01*
X102100500Y-109098711D01*
X102100500Y-103242135D01*
X112949500Y-103242135D01*
X112949500Y-105037870D01*
X112949501Y-105037876D01*
X112955908Y-105097483D01*
X113006202Y-105232328D01*
X113006206Y-105232335D01*
X113092452Y-105347544D01*
X113092455Y-105347547D01*
X113207664Y-105433793D01*
X113207671Y-105433797D01*
X113252618Y-105450561D01*
X113342517Y-105484091D01*
X113402127Y-105490500D01*
X113412685Y-105490499D01*
X113479723Y-105510179D01*
X113500372Y-105526818D01*
X114170591Y-106197037D01*
X114107007Y-106214075D01*
X113992993Y-106279901D01*
X113899901Y-106372993D01*
X113834075Y-106487007D01*
X113817037Y-106550591D01*
X113184728Y-105918282D01*
X113184727Y-105918282D01*
X113145380Y-105972439D01*
X113048904Y-106161782D01*
X112983242Y-106363869D01*
X112983242Y-106363872D01*
X112950000Y-106573753D01*
X112950000Y-106786246D01*
X112983242Y-106996127D01*
X112983242Y-106996130D01*
X113048904Y-107198217D01*
X113145375Y-107387550D01*
X113184728Y-107441716D01*
X113817037Y-106809408D01*
X113834075Y-106872993D01*
X113899901Y-106987007D01*
X113992993Y-107080099D01*
X114107007Y-107145925D01*
X114170590Y-107162962D01*
X113538282Y-107795269D01*
X113538282Y-107795270D01*
X113592449Y-107834624D01*
X113781782Y-107931095D01*
X113983870Y-107996757D01*
X114193754Y-108030000D01*
X114406246Y-108030000D01*
X114616127Y-107996757D01*
X114616130Y-107996757D01*
X114818217Y-107931095D01*
X115007554Y-107834622D01*
X115061716Y-107795270D01*
X115061717Y-107795270D01*
X114429408Y-107162962D01*
X114492993Y-107145925D01*
X114607007Y-107080099D01*
X114700099Y-106987007D01*
X114765925Y-106872993D01*
X114782962Y-106809408D01*
X115415270Y-107441717D01*
X115415270Y-107441716D01*
X115454622Y-107387554D01*
X115551095Y-107198217D01*
X115616757Y-106996130D01*
X115616757Y-106996127D01*
X115650000Y-106786246D01*
X115650000Y-106573753D01*
X115616757Y-106363872D01*
X115616757Y-106363869D01*
X115551095Y-106161782D01*
X115454624Y-105972449D01*
X115415270Y-105918282D01*
X115415269Y-105918282D01*
X114782962Y-106550590D01*
X114765925Y-106487007D01*
X114700099Y-106372993D01*
X114607007Y-106279901D01*
X114492993Y-106214075D01*
X114429409Y-106197037D01*
X115099627Y-105526818D01*
X115160950Y-105493333D01*
X115187307Y-105490499D01*
X115197872Y-105490499D01*
X115257483Y-105484091D01*
X115392331Y-105433796D01*
X115507546Y-105347546D01*
X115593796Y-105232331D01*
X115644091Y-105097483D01*
X115650500Y-105037873D01*
X115650499Y-103242135D01*
X163749500Y-103242135D01*
X163749500Y-105037870D01*
X163749501Y-105037876D01*
X163755908Y-105097483D01*
X163806202Y-105232328D01*
X163806206Y-105232335D01*
X163892452Y-105347544D01*
X163892455Y-105347547D01*
X164007664Y-105433793D01*
X164007671Y-105433797D01*
X164052618Y-105450561D01*
X164142517Y-105484091D01*
X164202127Y-105490500D01*
X164212685Y-105490499D01*
X164279723Y-105510179D01*
X164300372Y-105526818D01*
X164970591Y-106197037D01*
X164907007Y-106214075D01*
X164792993Y-106279901D01*
X164699901Y-106372993D01*
X164634075Y-106487007D01*
X164617037Y-106550591D01*
X163984728Y-105918282D01*
X163984727Y-105918282D01*
X163945380Y-105972439D01*
X163848904Y-106161782D01*
X163783242Y-106363869D01*
X163783242Y-106363872D01*
X163750000Y-106573753D01*
X163750000Y-106786246D01*
X163783242Y-106996127D01*
X163783242Y-106996130D01*
X163848904Y-107198217D01*
X163945375Y-107387550D01*
X163984728Y-107441716D01*
X164617037Y-106809408D01*
X164634075Y-106872993D01*
X164699901Y-106987007D01*
X164792993Y-107080099D01*
X164907007Y-107145925D01*
X164970590Y-107162962D01*
X164338282Y-107795269D01*
X164338282Y-107795270D01*
X164392449Y-107834624D01*
X164581782Y-107931095D01*
X164783870Y-107996757D01*
X164993754Y-108030000D01*
X165206246Y-108030000D01*
X165416127Y-107996757D01*
X165416130Y-107996757D01*
X165618217Y-107931095D01*
X165807554Y-107834622D01*
X165861716Y-107795270D01*
X165861717Y-107795270D01*
X165229408Y-107162962D01*
X165292993Y-107145925D01*
X165407007Y-107080099D01*
X165500099Y-106987007D01*
X165565925Y-106872993D01*
X165582962Y-106809408D01*
X166215270Y-107441717D01*
X166215270Y-107441716D01*
X166254622Y-107387554D01*
X166351095Y-107198217D01*
X166416757Y-106996130D01*
X166416757Y-106996127D01*
X166450000Y-106786246D01*
X166450000Y-106573753D01*
X166416757Y-106363872D01*
X166416757Y-106363869D01*
X166351095Y-106161782D01*
X166254624Y-105972449D01*
X166215270Y-105918282D01*
X166215269Y-105918282D01*
X165582962Y-106550590D01*
X165565925Y-106487007D01*
X165500099Y-106372993D01*
X165407007Y-106279901D01*
X165292993Y-106214075D01*
X165229409Y-106197037D01*
X165899627Y-105526818D01*
X165960950Y-105493333D01*
X165987307Y-105490499D01*
X165997872Y-105490499D01*
X166057483Y-105484091D01*
X166192331Y-105433796D01*
X166307546Y-105347546D01*
X166393796Y-105232331D01*
X166444091Y-105097483D01*
X166450500Y-105037873D01*
X166450499Y-103242128D01*
X166444091Y-103182517D01*
X166393796Y-103047669D01*
X166393795Y-103047668D01*
X166393793Y-103047664D01*
X166307547Y-102932455D01*
X166307544Y-102932452D01*
X166192335Y-102846206D01*
X166192328Y-102846202D01*
X166057482Y-102795908D01*
X166057483Y-102795908D01*
X165997883Y-102789501D01*
X165997881Y-102789500D01*
X165997873Y-102789500D01*
X165997864Y-102789500D01*
X164202129Y-102789500D01*
X164202123Y-102789501D01*
X164142516Y-102795908D01*
X164007671Y-102846202D01*
X164007664Y-102846206D01*
X163892455Y-102932452D01*
X163892452Y-102932455D01*
X163806206Y-103047664D01*
X163806202Y-103047671D01*
X163755908Y-103182517D01*
X163749501Y-103242116D01*
X163749501Y-103242123D01*
X163749500Y-103242135D01*
X115650499Y-103242135D01*
X115650499Y-103242128D01*
X115644091Y-103182517D01*
X115593796Y-103047669D01*
X115593795Y-103047668D01*
X115593793Y-103047664D01*
X115507547Y-102932455D01*
X115507544Y-102932452D01*
X115392335Y-102846206D01*
X115392328Y-102846202D01*
X115257482Y-102795908D01*
X115257483Y-102795908D01*
X115197883Y-102789501D01*
X115197881Y-102789500D01*
X115197873Y-102789500D01*
X115197864Y-102789500D01*
X113402129Y-102789500D01*
X113402123Y-102789501D01*
X113342516Y-102795908D01*
X113207671Y-102846202D01*
X113207664Y-102846206D01*
X113092455Y-102932452D01*
X113092452Y-102932455D01*
X113006206Y-103047664D01*
X113006202Y-103047671D01*
X112955908Y-103182517D01*
X112949501Y-103242116D01*
X112949501Y-103242123D01*
X112949500Y-103242135D01*
X102100500Y-103242135D01*
X102100500Y-85462135D01*
X120569500Y-85462135D01*
X120569500Y-87257870D01*
X120569501Y-87257876D01*
X120575908Y-87317483D01*
X120626202Y-87452328D01*
X120626206Y-87452335D01*
X120712452Y-87567544D01*
X120712455Y-87567547D01*
X120827664Y-87653793D01*
X120827671Y-87653797D01*
X120959082Y-87702810D01*
X121015016Y-87744681D01*
X121039433Y-87810145D01*
X121024582Y-87878418D01*
X121003431Y-87906673D01*
X120889889Y-88020215D01*
X120764951Y-88192179D01*
X120668444Y-88381585D01*
X120602753Y-88583760D01*
X120569500Y-88793713D01*
X120569500Y-89006286D01*
X120602753Y-89216239D01*
X120668444Y-89418414D01*
X120764951Y-89607820D01*
X120889890Y-89779786D01*
X121040213Y-89930109D01*
X121212182Y-90055050D01*
X121220946Y-90059516D01*
X121271742Y-90107491D01*
X121288536Y-90175312D01*
X121265998Y-90241447D01*
X121220946Y-90280484D01*
X121212182Y-90284949D01*
X121040213Y-90409890D01*
X120889890Y-90560213D01*
X120764951Y-90732179D01*
X120668444Y-90921585D01*
X120602753Y-91123760D01*
X120569500Y-91333713D01*
X120569500Y-91546286D01*
X120602753Y-91756239D01*
X120668444Y-91958414D01*
X120764951Y-92147820D01*
X120889890Y-92319786D01*
X121040213Y-92470109D01*
X121212179Y-92595048D01*
X121212181Y-92595049D01*
X121212184Y-92595051D01*
X121221493Y-92599794D01*
X121272290Y-92647766D01*
X121289087Y-92715587D01*
X121266552Y-92781722D01*
X121221505Y-92820760D01*
X121212446Y-92825376D01*
X121212440Y-92825380D01*
X121158282Y-92864727D01*
X121158282Y-92864728D01*
X121790591Y-93497037D01*
X121727007Y-93514075D01*
X121612993Y-93579901D01*
X121519901Y-93672993D01*
X121454075Y-93787007D01*
X121437037Y-93850591D01*
X120804728Y-93218282D01*
X120804727Y-93218282D01*
X120765380Y-93272439D01*
X120668904Y-93461782D01*
X120603242Y-93663869D01*
X120603242Y-93663872D01*
X120570000Y-93873753D01*
X120570000Y-94086246D01*
X120603242Y-94296127D01*
X120603242Y-94296130D01*
X120668904Y-94498217D01*
X120765375Y-94687550D01*
X120804728Y-94741716D01*
X121437037Y-94109408D01*
X121454075Y-94172993D01*
X121519901Y-94287007D01*
X121612993Y-94380099D01*
X121727007Y-94445925D01*
X121790590Y-94462962D01*
X121158282Y-95095269D01*
X121158282Y-95095270D01*
X121212449Y-95134624D01*
X121401782Y-95231095D01*
X121603870Y-95296757D01*
X121813754Y-95330000D01*
X122026246Y-95330000D01*
X122236127Y-95296757D01*
X122236130Y-95296757D01*
X122438217Y-95231095D01*
X122627554Y-95134622D01*
X122681716Y-95095270D01*
X122681717Y-95095270D01*
X122049408Y-94462962D01*
X122112993Y-94445925D01*
X122227007Y-94380099D01*
X122320099Y-94287007D01*
X122385925Y-94172993D01*
X122402962Y-94109408D01*
X123035270Y-94741717D01*
X123035270Y-94741716D01*
X123074622Y-94687554D01*
X123171095Y-94498217D01*
X123236757Y-94296130D01*
X123236757Y-94296127D01*
X123270000Y-94086246D01*
X123270000Y-93873753D01*
X123236757Y-93663872D01*
X123236757Y-93663869D01*
X123171095Y-93461782D01*
X123074624Y-93272449D01*
X123035270Y-93218282D01*
X123035269Y-93218282D01*
X122402962Y-93850590D01*
X122385925Y-93787007D01*
X122320099Y-93672993D01*
X122227007Y-93579901D01*
X122112993Y-93514075D01*
X122049409Y-93497037D01*
X122681716Y-92864728D01*
X122627547Y-92825373D01*
X122627547Y-92825372D01*
X122618500Y-92820763D01*
X122567706Y-92772788D01*
X122550912Y-92704966D01*
X122573451Y-92638832D01*
X122618508Y-92599793D01*
X122627816Y-92595051D01*
X122707007Y-92537515D01*
X122799786Y-92470109D01*
X122799788Y-92470106D01*
X122799792Y-92470104D01*
X122950104Y-92319792D01*
X122950106Y-92319788D01*
X122950109Y-92319786D01*
X123075048Y-92147820D01*
X123075047Y-92147820D01*
X123075051Y-92147816D01*
X123171557Y-91958412D01*
X123237246Y-91756243D01*
X123270500Y-91546287D01*
X123270500Y-91333713D01*
X123237246Y-91123757D01*
X123171557Y-90921588D01*
X123075051Y-90732184D01*
X123075049Y-90732181D01*
X123075048Y-90732179D01*
X122950109Y-90560213D01*
X122799786Y-90409890D01*
X122627820Y-90284951D01*
X122627115Y-90284591D01*
X122619054Y-90280485D01*
X122568259Y-90232512D01*
X122551463Y-90164692D01*
X122573999Y-90098556D01*
X122619054Y-90059515D01*
X122627816Y-90055051D01*
X122682572Y-90015269D01*
X122799786Y-89930109D01*
X122799788Y-89930106D01*
X122799792Y-89930104D01*
X122950104Y-89779792D01*
X122950106Y-89779788D01*
X122950109Y-89779786D01*
X123075048Y-89607820D01*
X123075047Y-89607820D01*
X123075051Y-89607816D01*
X123171557Y-89418412D01*
X123237246Y-89216243D01*
X123270500Y-89006287D01*
X123270500Y-88793713D01*
X123237246Y-88583757D01*
X123171557Y-88381588D01*
X123075051Y-88192184D01*
X123075049Y-88192181D01*
X123075048Y-88192179D01*
X122950109Y-88020213D01*
X122836569Y-87906673D01*
X122803084Y-87845350D01*
X122808068Y-87775658D01*
X122849940Y-87719725D01*
X122880915Y-87702810D01*
X123012331Y-87653796D01*
X123127546Y-87567546D01*
X123213796Y-87452331D01*
X123264091Y-87317483D01*
X123270500Y-87257873D01*
X123270499Y-85462135D01*
X130729500Y-85462135D01*
X130729500Y-87257870D01*
X130729501Y-87257876D01*
X130735908Y-87317483D01*
X130786202Y-87452328D01*
X130786206Y-87452335D01*
X130872452Y-87567544D01*
X130872455Y-87567547D01*
X130987664Y-87653793D01*
X130987671Y-87653797D01*
X131119082Y-87702810D01*
X131175016Y-87744681D01*
X131199433Y-87810145D01*
X131184582Y-87878418D01*
X131163431Y-87906673D01*
X131049889Y-88020215D01*
X130924951Y-88192179D01*
X130828444Y-88381585D01*
X130762753Y-88583760D01*
X130729500Y-88793713D01*
X130729500Y-89006286D01*
X130762753Y-89216239D01*
X130828444Y-89418414D01*
X130924951Y-89607820D01*
X131049890Y-89779786D01*
X131200213Y-89930109D01*
X131372182Y-90055050D01*
X131380946Y-90059516D01*
X131431742Y-90107491D01*
X131448536Y-90175312D01*
X131425998Y-90241447D01*
X131380946Y-90280484D01*
X131372182Y-90284949D01*
X131200213Y-90409890D01*
X131049890Y-90560213D01*
X130924951Y-90732179D01*
X130828444Y-90921585D01*
X130762753Y-91123760D01*
X130729500Y-91333713D01*
X130729500Y-91546286D01*
X130762753Y-91756239D01*
X130828444Y-91958414D01*
X130924951Y-92147820D01*
X131049890Y-92319786D01*
X131200213Y-92470109D01*
X131372179Y-92595048D01*
X131372181Y-92595049D01*
X131372184Y-92595051D01*
X131381493Y-92599794D01*
X131432290Y-92647766D01*
X131449087Y-92715587D01*
X131426552Y-92781722D01*
X131381505Y-92820760D01*
X131372446Y-92825376D01*
X131372440Y-92825380D01*
X131318282Y-92864727D01*
X131318282Y-92864728D01*
X131950591Y-93497037D01*
X131887007Y-93514075D01*
X131772993Y-93579901D01*
X131679901Y-93672993D01*
X131614075Y-93787007D01*
X131597037Y-93850591D01*
X130964728Y-93218282D01*
X130964727Y-93218282D01*
X130925380Y-93272439D01*
X130828904Y-93461782D01*
X130763242Y-93663869D01*
X130763242Y-93663872D01*
X130730000Y-93873753D01*
X130730000Y-94086246D01*
X130763242Y-94296127D01*
X130763242Y-94296130D01*
X130828904Y-94498217D01*
X130925375Y-94687550D01*
X130964728Y-94741716D01*
X131597037Y-94109408D01*
X131614075Y-94172993D01*
X131679901Y-94287007D01*
X131772993Y-94380099D01*
X131887007Y-94445925D01*
X131950590Y-94462962D01*
X131318282Y-95095269D01*
X131318282Y-95095270D01*
X131372449Y-95134624D01*
X131561782Y-95231095D01*
X131763870Y-95296757D01*
X131973754Y-95330000D01*
X132186246Y-95330000D01*
X132396127Y-95296757D01*
X132396130Y-95296757D01*
X132598217Y-95231095D01*
X132787554Y-95134622D01*
X132841716Y-95095270D01*
X132841717Y-95095270D01*
X132209408Y-94462962D01*
X132272993Y-94445925D01*
X132387007Y-94380099D01*
X132480099Y-94287007D01*
X132545925Y-94172993D01*
X132562962Y-94109409D01*
X133195270Y-94741717D01*
X133195270Y-94741716D01*
X133234622Y-94687554D01*
X133331095Y-94498217D01*
X133396757Y-94296130D01*
X133396757Y-94296127D01*
X133430000Y-94086246D01*
X133430000Y-93873753D01*
X133396757Y-93663872D01*
X133396757Y-93663869D01*
X133331095Y-93461782D01*
X133234624Y-93272449D01*
X133195270Y-93218282D01*
X133195269Y-93218282D01*
X132562962Y-93850590D01*
X132545925Y-93787007D01*
X132480099Y-93672993D01*
X132387007Y-93579901D01*
X132272993Y-93514075D01*
X132209409Y-93497037D01*
X132841716Y-92864728D01*
X132787547Y-92825373D01*
X132787547Y-92825372D01*
X132778500Y-92820763D01*
X132727706Y-92772788D01*
X132710912Y-92704966D01*
X132733451Y-92638832D01*
X132778508Y-92599793D01*
X132787816Y-92595051D01*
X132867007Y-92537515D01*
X132959786Y-92470109D01*
X132959788Y-92470106D01*
X132959792Y-92470104D01*
X133110104Y-92319792D01*
X133110106Y-92319788D01*
X133110109Y-92319786D01*
X133235048Y-92147820D01*
X133235047Y-92147820D01*
X133235051Y-92147816D01*
X133331557Y-91958412D01*
X133397246Y-91756243D01*
X133430500Y-91546287D01*
X133430500Y-91333713D01*
X133397246Y-91123757D01*
X133331557Y-90921588D01*
X133235051Y-90732184D01*
X133235049Y-90732181D01*
X133235048Y-90732179D01*
X133110109Y-90560213D01*
X132959786Y-90409890D01*
X132787820Y-90284951D01*
X132787115Y-90284591D01*
X132779054Y-90280485D01*
X132728259Y-90232512D01*
X132711463Y-90164692D01*
X132733999Y-90098556D01*
X132779054Y-90059515D01*
X132787816Y-90055051D01*
X132842572Y-90015269D01*
X132959786Y-89930109D01*
X132959788Y-89930106D01*
X132959792Y-89930104D01*
X133110104Y-89779792D01*
X133110106Y-89779788D01*
X133110109Y-89779786D01*
X133235048Y-89607820D01*
X133235047Y-89607820D01*
X133235051Y-89607816D01*
X133331557Y-89418412D01*
X133397246Y-89216243D01*
X133430500Y-89006287D01*
X133430500Y-88793713D01*
X133397246Y-88583757D01*
X133331557Y-88381588D01*
X133235051Y-88192184D01*
X133235049Y-88192181D01*
X133235048Y-88192179D01*
X133110109Y-88020213D01*
X132996569Y-87906673D01*
X132963084Y-87845350D01*
X132968068Y-87775658D01*
X133009940Y-87719725D01*
X133040915Y-87702810D01*
X133172331Y-87653796D01*
X133287546Y-87567546D01*
X133373796Y-87452331D01*
X133424091Y-87317483D01*
X133430500Y-87257873D01*
X133430499Y-85462135D01*
X140889500Y-85462135D01*
X140889500Y-87257870D01*
X140889501Y-87257876D01*
X140895908Y-87317483D01*
X140946202Y-87452328D01*
X140946206Y-87452335D01*
X141032452Y-87567544D01*
X141032455Y-87567547D01*
X141147664Y-87653793D01*
X141147671Y-87653797D01*
X141279082Y-87702810D01*
X141335016Y-87744681D01*
X141359433Y-87810145D01*
X141344582Y-87878418D01*
X141323431Y-87906673D01*
X141209889Y-88020215D01*
X141084951Y-88192179D01*
X140988444Y-88381585D01*
X140922753Y-88583760D01*
X140889500Y-88793713D01*
X140889500Y-89006286D01*
X140922753Y-89216239D01*
X140988444Y-89418414D01*
X141084951Y-89607820D01*
X141209890Y-89779786D01*
X141360213Y-89930109D01*
X141532182Y-90055050D01*
X141540946Y-90059516D01*
X141591742Y-90107491D01*
X141608536Y-90175312D01*
X141585998Y-90241447D01*
X141540946Y-90280484D01*
X141532182Y-90284949D01*
X141360213Y-90409890D01*
X141209890Y-90560213D01*
X141084951Y-90732179D01*
X140988444Y-90921585D01*
X140922753Y-91123760D01*
X140889500Y-91333713D01*
X140889500Y-91546286D01*
X140922753Y-91756239D01*
X140988444Y-91958414D01*
X141084951Y-92147820D01*
X141209890Y-92319786D01*
X141360213Y-92470109D01*
X141532179Y-92595048D01*
X141532181Y-92595049D01*
X141532184Y-92595051D01*
X141541493Y-92599794D01*
X141592290Y-92647766D01*
X141609087Y-92715587D01*
X141586552Y-92781722D01*
X141541505Y-92820760D01*
X141532446Y-92825376D01*
X141532440Y-92825380D01*
X141478282Y-92864727D01*
X141478282Y-92864728D01*
X142110591Y-93497037D01*
X142047007Y-93514075D01*
X141932993Y-93579901D01*
X141839901Y-93672993D01*
X141774075Y-93787007D01*
X141757037Y-93850591D01*
X141124728Y-93218282D01*
X141124727Y-93218282D01*
X141085380Y-93272439D01*
X140988904Y-93461782D01*
X140923242Y-93663869D01*
X140923242Y-93663872D01*
X140890000Y-93873753D01*
X140890000Y-94086246D01*
X140923242Y-94296127D01*
X140923242Y-94296130D01*
X140988904Y-94498217D01*
X141085375Y-94687550D01*
X141124728Y-94741716D01*
X141757037Y-94109408D01*
X141774075Y-94172993D01*
X141839901Y-94287007D01*
X141932993Y-94380099D01*
X142047007Y-94445925D01*
X142110590Y-94462962D01*
X141478282Y-95095269D01*
X141478282Y-95095270D01*
X141532449Y-95134624D01*
X141721782Y-95231095D01*
X141923870Y-95296757D01*
X142133754Y-95330000D01*
X142346246Y-95330000D01*
X142556127Y-95296757D01*
X142556130Y-95296757D01*
X142758217Y-95231095D01*
X142947554Y-95134622D01*
X143001716Y-95095270D01*
X143001717Y-95095270D01*
X142369408Y-94462962D01*
X142432993Y-94445925D01*
X142547007Y-94380099D01*
X142640099Y-94287007D01*
X142705925Y-94172993D01*
X142722962Y-94109408D01*
X143355270Y-94741717D01*
X143355270Y-94741716D01*
X143394622Y-94687554D01*
X143491095Y-94498217D01*
X143556757Y-94296130D01*
X143556757Y-94296127D01*
X143590000Y-94086246D01*
X143590000Y-93873753D01*
X143556757Y-93663872D01*
X143556757Y-93663869D01*
X143491095Y-93461782D01*
X143394624Y-93272449D01*
X143355270Y-93218282D01*
X143355269Y-93218282D01*
X142722962Y-93850590D01*
X142705925Y-93787007D01*
X142640099Y-93672993D01*
X142547007Y-93579901D01*
X142432993Y-93514075D01*
X142369409Y-93497037D01*
X143001716Y-92864728D01*
X142947547Y-92825373D01*
X142947547Y-92825372D01*
X142938500Y-92820763D01*
X142887706Y-92772788D01*
X142870912Y-92704966D01*
X142893451Y-92638832D01*
X142938508Y-92599793D01*
X142947816Y-92595051D01*
X143027007Y-92537515D01*
X143119786Y-92470109D01*
X143119788Y-92470106D01*
X143119792Y-92470104D01*
X143270104Y-92319792D01*
X143270106Y-92319788D01*
X143270109Y-92319786D01*
X143395048Y-92147820D01*
X143395047Y-92147820D01*
X143395051Y-92147816D01*
X143491557Y-91958412D01*
X143557246Y-91756243D01*
X143590500Y-91546287D01*
X143590500Y-91333713D01*
X143557246Y-91123757D01*
X143491557Y-90921588D01*
X143395051Y-90732184D01*
X143395049Y-90732181D01*
X143395048Y-90732179D01*
X143270109Y-90560213D01*
X143119786Y-90409890D01*
X142947820Y-90284951D01*
X142947115Y-90284591D01*
X142939054Y-90280485D01*
X142888259Y-90232512D01*
X142871463Y-90164692D01*
X142893999Y-90098556D01*
X142939054Y-90059515D01*
X142947816Y-90055051D01*
X143002572Y-90015269D01*
X143119786Y-89930109D01*
X143119788Y-89930106D01*
X143119792Y-89930104D01*
X143270104Y-89779792D01*
X143270106Y-89779788D01*
X143270109Y-89779786D01*
X143395048Y-89607820D01*
X143395047Y-89607820D01*
X143395051Y-89607816D01*
X143491557Y-89418412D01*
X143557246Y-89216243D01*
X143590500Y-89006287D01*
X143590500Y-88793713D01*
X143557246Y-88583757D01*
X143491557Y-88381588D01*
X143395051Y-88192184D01*
X143395049Y-88192181D01*
X143395048Y-88192179D01*
X143270109Y-88020213D01*
X143156569Y-87906673D01*
X143123084Y-87845350D01*
X143128068Y-87775658D01*
X143169940Y-87719725D01*
X143200915Y-87702810D01*
X143332331Y-87653796D01*
X143447546Y-87567546D01*
X143533796Y-87452331D01*
X143584091Y-87317483D01*
X143590500Y-87257873D01*
X143590499Y-85462135D01*
X153589500Y-85462135D01*
X153589500Y-87257870D01*
X153589501Y-87257876D01*
X153595908Y-87317483D01*
X153646202Y-87452328D01*
X153646206Y-87452335D01*
X153732452Y-87567544D01*
X153732455Y-87567547D01*
X153847664Y-87653793D01*
X153847671Y-87653797D01*
X153892618Y-87670561D01*
X153982517Y-87704091D01*
X154042127Y-87710500D01*
X154052685Y-87710499D01*
X154119723Y-87730179D01*
X154140372Y-87746818D01*
X154810591Y-88417037D01*
X154747007Y-88434075D01*
X154632993Y-88499901D01*
X154539901Y-88592993D01*
X154474075Y-88707007D01*
X154457037Y-88770591D01*
X153824728Y-88138282D01*
X153824727Y-88138282D01*
X153785380Y-88192439D01*
X153688904Y-88381782D01*
X153623242Y-88583869D01*
X153623242Y-88583872D01*
X153590000Y-88793753D01*
X153590000Y-89006246D01*
X153623242Y-89216127D01*
X153623242Y-89216130D01*
X153688904Y-89418217D01*
X153785375Y-89607550D01*
X153824728Y-89661716D01*
X154457037Y-89029408D01*
X154474075Y-89092993D01*
X154539901Y-89207007D01*
X154632993Y-89300099D01*
X154747007Y-89365925D01*
X154810590Y-89382962D01*
X154178282Y-90015269D01*
X154178282Y-90015270D01*
X154232452Y-90054626D01*
X154232451Y-90054626D01*
X154241495Y-90059234D01*
X154292292Y-90107208D01*
X154309087Y-90175029D01*
X154286550Y-90241164D01*
X154241499Y-90280202D01*
X154232182Y-90284949D01*
X154060213Y-90409890D01*
X153909890Y-90560213D01*
X153784951Y-90732179D01*
X153688444Y-90921585D01*
X153622753Y-91123760D01*
X153589500Y-91333713D01*
X153589500Y-91546286D01*
X153622753Y-91756239D01*
X153688444Y-91958414D01*
X153784951Y-92147820D01*
X153909890Y-92319786D01*
X154060213Y-92470109D01*
X154232179Y-92595048D01*
X154232181Y-92595049D01*
X154232184Y-92595051D01*
X154241493Y-92599794D01*
X154292290Y-92647766D01*
X154309087Y-92715587D01*
X154286552Y-92781722D01*
X154241505Y-92820760D01*
X154232446Y-92825376D01*
X154232440Y-92825380D01*
X154178282Y-92864727D01*
X154178282Y-92864728D01*
X154810591Y-93497037D01*
X154747007Y-93514075D01*
X154632993Y-93579901D01*
X154539901Y-93672993D01*
X154474075Y-93787007D01*
X154457037Y-93850591D01*
X153824728Y-93218282D01*
X153824727Y-93218282D01*
X153785380Y-93272439D01*
X153688904Y-93461782D01*
X153623242Y-93663869D01*
X153623242Y-93663872D01*
X153590000Y-93873753D01*
X153590000Y-94086246D01*
X153623242Y-94296127D01*
X153623242Y-94296130D01*
X153688904Y-94498217D01*
X153785375Y-94687550D01*
X153824728Y-94741716D01*
X154457037Y-94109408D01*
X154474075Y-94172993D01*
X154539901Y-94287007D01*
X154632993Y-94380099D01*
X154747007Y-94445925D01*
X154810590Y-94462962D01*
X154178282Y-95095269D01*
X154178282Y-95095270D01*
X154232449Y-95134624D01*
X154421782Y-95231095D01*
X154623870Y-95296757D01*
X154833754Y-95330000D01*
X155046246Y-95330000D01*
X155256127Y-95296757D01*
X155256130Y-95296757D01*
X155458217Y-95231095D01*
X155647554Y-95134622D01*
X155701716Y-95095270D01*
X155701717Y-95095270D01*
X155069408Y-94462962D01*
X155132993Y-94445925D01*
X155247007Y-94380099D01*
X155340099Y-94287007D01*
X155405925Y-94172993D01*
X155422962Y-94109409D01*
X156055270Y-94741717D01*
X156055270Y-94741716D01*
X156094622Y-94687554D01*
X156191095Y-94498217D01*
X156256757Y-94296130D01*
X156256757Y-94296127D01*
X156290000Y-94086246D01*
X156290000Y-93873753D01*
X156256757Y-93663872D01*
X156256757Y-93663869D01*
X156191095Y-93461782D01*
X156094624Y-93272449D01*
X156055270Y-93218282D01*
X156055269Y-93218282D01*
X155422962Y-93850590D01*
X155405925Y-93787007D01*
X155340099Y-93672993D01*
X155247007Y-93579901D01*
X155132993Y-93514075D01*
X155069409Y-93497037D01*
X155701716Y-92864728D01*
X155647547Y-92825373D01*
X155647547Y-92825372D01*
X155638500Y-92820763D01*
X155587706Y-92772788D01*
X155570912Y-92704966D01*
X155593451Y-92638832D01*
X155638508Y-92599793D01*
X155647816Y-92595051D01*
X155727007Y-92537515D01*
X155819786Y-92470109D01*
X155819788Y-92470106D01*
X155819792Y-92470104D01*
X155970104Y-92319792D01*
X155970106Y-92319788D01*
X155970109Y-92319786D01*
X156095048Y-92147820D01*
X156095047Y-92147820D01*
X156095051Y-92147816D01*
X156191557Y-91958412D01*
X156257246Y-91756243D01*
X156290500Y-91546287D01*
X156290500Y-91333713D01*
X156257246Y-91123757D01*
X156191557Y-90921588D01*
X156095051Y-90732184D01*
X156095049Y-90732181D01*
X156095048Y-90732179D01*
X155970109Y-90560213D01*
X155819786Y-90409890D01*
X155647817Y-90284949D01*
X155638504Y-90280204D01*
X155587707Y-90232230D01*
X155570912Y-90164409D01*
X155593449Y-90098274D01*
X155638507Y-90059232D01*
X155647555Y-90054622D01*
X155701716Y-90015270D01*
X155701717Y-90015270D01*
X155069408Y-89382962D01*
X155132993Y-89365925D01*
X155247007Y-89300099D01*
X155340099Y-89207007D01*
X155405925Y-89092993D01*
X155422962Y-89029409D01*
X156055270Y-89661717D01*
X156055270Y-89661716D01*
X156094622Y-89607554D01*
X156191095Y-89418217D01*
X156256757Y-89216130D01*
X156256757Y-89216127D01*
X156290000Y-89006246D01*
X156290000Y-88793753D01*
X156256757Y-88583872D01*
X156256757Y-88583869D01*
X156191095Y-88381782D01*
X156094624Y-88192449D01*
X156055270Y-88138282D01*
X156055269Y-88138282D01*
X155422962Y-88770590D01*
X155405925Y-88707007D01*
X155340099Y-88592993D01*
X155247007Y-88499901D01*
X155132993Y-88434075D01*
X155069409Y-88417037D01*
X155739627Y-87746818D01*
X155800950Y-87713333D01*
X155827307Y-87710499D01*
X155837872Y-87710499D01*
X155897483Y-87704091D01*
X156032331Y-87653796D01*
X156147546Y-87567546D01*
X156233796Y-87452331D01*
X156284091Y-87317483D01*
X156290500Y-87257873D01*
X156290499Y-85462128D01*
X156284091Y-85402517D01*
X156233796Y-85267669D01*
X156233795Y-85267668D01*
X156233793Y-85267664D01*
X156147547Y-85152455D01*
X156147544Y-85152452D01*
X156032335Y-85066206D01*
X156032328Y-85066202D01*
X155897482Y-85015908D01*
X155897483Y-85015908D01*
X155837883Y-85009501D01*
X155837881Y-85009500D01*
X155837873Y-85009500D01*
X155837864Y-85009500D01*
X154042129Y-85009500D01*
X154042123Y-85009501D01*
X153982516Y-85015908D01*
X153847671Y-85066202D01*
X153847664Y-85066206D01*
X153732455Y-85152452D01*
X153732452Y-85152455D01*
X153646206Y-85267664D01*
X153646202Y-85267671D01*
X153595908Y-85402517D01*
X153589501Y-85462116D01*
X153589501Y-85462123D01*
X153589500Y-85462135D01*
X143590499Y-85462135D01*
X143590499Y-85462128D01*
X143584091Y-85402517D01*
X143533796Y-85267669D01*
X143533795Y-85267668D01*
X143533793Y-85267664D01*
X143447547Y-85152455D01*
X143447544Y-85152452D01*
X143332335Y-85066206D01*
X143332328Y-85066202D01*
X143197482Y-85015908D01*
X143197483Y-85015908D01*
X143137883Y-85009501D01*
X143137881Y-85009500D01*
X143137873Y-85009500D01*
X143137864Y-85009500D01*
X141342129Y-85009500D01*
X141342123Y-85009501D01*
X141282516Y-85015908D01*
X141147671Y-85066202D01*
X141147664Y-85066206D01*
X141032455Y-85152452D01*
X141032452Y-85152455D01*
X140946206Y-85267664D01*
X140946202Y-85267671D01*
X140895908Y-85402517D01*
X140889501Y-85462116D01*
X140889501Y-85462123D01*
X140889500Y-85462135D01*
X133430499Y-85462135D01*
X133430499Y-85462128D01*
X133424091Y-85402517D01*
X133373796Y-85267669D01*
X133373795Y-85267668D01*
X133373793Y-85267664D01*
X133287547Y-85152455D01*
X133287544Y-85152452D01*
X133172335Y-85066206D01*
X133172328Y-85066202D01*
X133037482Y-85015908D01*
X133037483Y-85015908D01*
X132977883Y-85009501D01*
X132977881Y-85009500D01*
X132977873Y-85009500D01*
X132977864Y-85009500D01*
X131182129Y-85009500D01*
X131182123Y-85009501D01*
X131122516Y-85015908D01*
X130987671Y-85066202D01*
X130987664Y-85066206D01*
X130872455Y-85152452D01*
X130872452Y-85152455D01*
X130786206Y-85267664D01*
X130786202Y-85267671D01*
X130735908Y-85402517D01*
X130729501Y-85462116D01*
X130729501Y-85462123D01*
X130729500Y-85462135D01*
X123270499Y-85462135D01*
X123270499Y-85462128D01*
X123264091Y-85402517D01*
X123213796Y-85267669D01*
X123213795Y-85267668D01*
X123213793Y-85267664D01*
X123127547Y-85152455D01*
X123127544Y-85152452D01*
X123012335Y-85066206D01*
X123012328Y-85066202D01*
X122877482Y-85015908D01*
X122877483Y-85015908D01*
X122817883Y-85009501D01*
X122817881Y-85009500D01*
X122817873Y-85009500D01*
X122817864Y-85009500D01*
X121022129Y-85009500D01*
X121022123Y-85009501D01*
X120962516Y-85015908D01*
X120827671Y-85066202D01*
X120827664Y-85066206D01*
X120712455Y-85152452D01*
X120712452Y-85152455D01*
X120626206Y-85267664D01*
X120626202Y-85267671D01*
X120575908Y-85402517D01*
X120569501Y-85462116D01*
X120569501Y-85462123D01*
X120569500Y-85462135D01*
X102100500Y-85462135D01*
X102100500Y-72804982D01*
X115324500Y-72804982D01*
X115324500Y-75405017D01*
X115335000Y-75507796D01*
X115390185Y-75674332D01*
X115390187Y-75674337D01*
X115402322Y-75694011D01*
X115482288Y-75823656D01*
X115606344Y-75947712D01*
X115755665Y-76039814D01*
X115922202Y-76094999D01*
X116024990Y-76105500D01*
X116024995Y-76105500D01*
X118625005Y-76105500D01*
X118625010Y-76105500D01*
X118727798Y-76094999D01*
X118894335Y-76039814D01*
X119043656Y-75947712D01*
X119167712Y-75823656D01*
X119259814Y-75674335D01*
X119314999Y-75507798D01*
X119325500Y-75405010D01*
X119325500Y-73973905D01*
X120325000Y-73973905D01*
X120325000Y-74236094D01*
X120359220Y-74496009D01*
X120359222Y-74496020D01*
X120427075Y-74749255D01*
X120527404Y-74991471D01*
X120527409Y-74991482D01*
X120658488Y-75218516D01*
X120658494Y-75218524D01*
X120745080Y-75331365D01*
X121723958Y-74352487D01*
X121748978Y-74412890D01*
X121820112Y-74519351D01*
X121910649Y-74609888D01*
X122017110Y-74681022D01*
X122077511Y-74706041D01*
X121098633Y-75684917D01*
X121098633Y-75684918D01*
X121211475Y-75771505D01*
X121211483Y-75771511D01*
X121438517Y-75902590D01*
X121438528Y-75902595D01*
X121680744Y-76002924D01*
X121933979Y-76070777D01*
X121933990Y-76070779D01*
X122193905Y-76104999D01*
X122193920Y-76105000D01*
X122456080Y-76105000D01*
X122456094Y-76104999D01*
X122716009Y-76070779D01*
X122716020Y-76070777D01*
X122969255Y-76002924D01*
X123211471Y-75902595D01*
X123211482Y-75902590D01*
X123438516Y-75771511D01*
X123438534Y-75771499D01*
X123551365Y-75684919D01*
X123551365Y-75684917D01*
X122572488Y-74706041D01*
X122632890Y-74681022D01*
X122739351Y-74609888D01*
X122829888Y-74519351D01*
X122901022Y-74412890D01*
X122926041Y-74352489D01*
X123904917Y-75331365D01*
X123904919Y-75331365D01*
X123991499Y-75218534D01*
X123991511Y-75218516D01*
X124122590Y-74991482D01*
X124122595Y-74991471D01*
X124222924Y-74749255D01*
X124290777Y-74496020D01*
X124290779Y-74496009D01*
X124324999Y-74236094D01*
X124325000Y-74236080D01*
X124325000Y-73973919D01*
X124324999Y-73973905D01*
X124290779Y-73713990D01*
X124290777Y-73713979D01*
X124222924Y-73460744D01*
X124122595Y-73218528D01*
X124122590Y-73218517D01*
X123991511Y-72991483D01*
X123991505Y-72991475D01*
X123904918Y-72878633D01*
X123904917Y-72878633D01*
X122926041Y-73857510D01*
X122901022Y-73797110D01*
X122829888Y-73690649D01*
X122739351Y-73600112D01*
X122632890Y-73528978D01*
X122572487Y-73503957D01*
X123348964Y-72727482D01*
X139009500Y-72727482D01*
X139009500Y-75327517D01*
X139020000Y-75430296D01*
X139075185Y-75596832D01*
X139075187Y-75596837D01*
X139081714Y-75607419D01*
X139167288Y-75746156D01*
X139291344Y-75870212D01*
X139440665Y-75962314D01*
X139607202Y-76017499D01*
X139709990Y-76028000D01*
X139709995Y-76028000D01*
X142310005Y-76028000D01*
X142310010Y-76028000D01*
X142412798Y-76017499D01*
X142579335Y-75962314D01*
X142728656Y-75870212D01*
X142852712Y-75746156D01*
X142944814Y-75596835D01*
X142999999Y-75430298D01*
X143010500Y-75327510D01*
X143010500Y-73896405D01*
X144010000Y-73896405D01*
X144010000Y-74158594D01*
X144044220Y-74418509D01*
X144044222Y-74418520D01*
X144112075Y-74671755D01*
X144212404Y-74913971D01*
X144212409Y-74913982D01*
X144343488Y-75141016D01*
X144343494Y-75141024D01*
X144430080Y-75253865D01*
X145408958Y-74274987D01*
X145433978Y-74335390D01*
X145505112Y-74441851D01*
X145595649Y-74532388D01*
X145702110Y-74603522D01*
X145762511Y-74628541D01*
X144783633Y-75607417D01*
X144783633Y-75607418D01*
X144896475Y-75694005D01*
X144896483Y-75694011D01*
X145123517Y-75825090D01*
X145123528Y-75825095D01*
X145365744Y-75925424D01*
X145618979Y-75993277D01*
X145618990Y-75993279D01*
X145878905Y-76027499D01*
X145878920Y-76027500D01*
X146141080Y-76027500D01*
X146141094Y-76027499D01*
X146401009Y-75993279D01*
X146401020Y-75993277D01*
X146654255Y-75925424D01*
X146896471Y-75825095D01*
X146896482Y-75825090D01*
X147123516Y-75694011D01*
X147123534Y-75693999D01*
X147236365Y-75607419D01*
X147236365Y-75607417D01*
X146257488Y-74628541D01*
X146317890Y-74603522D01*
X146424351Y-74532388D01*
X146514888Y-74441851D01*
X146586022Y-74335390D01*
X146611041Y-74274989D01*
X147589917Y-75253865D01*
X147589919Y-75253865D01*
X147676499Y-75141034D01*
X147676511Y-75141016D01*
X147807590Y-74913982D01*
X147807595Y-74913971D01*
X147907924Y-74671755D01*
X147975777Y-74418520D01*
X147975779Y-74418509D01*
X148009999Y-74158594D01*
X148010000Y-74158580D01*
X148010000Y-73896419D01*
X148009999Y-73896405D01*
X147975779Y-73636490D01*
X147975777Y-73636479D01*
X147907924Y-73383244D01*
X147807595Y-73141028D01*
X147807590Y-73141017D01*
X147676511Y-72913983D01*
X147676505Y-72913975D01*
X147589918Y-72801133D01*
X147589917Y-72801133D01*
X146611041Y-73780010D01*
X146586022Y-73719610D01*
X146514888Y-73613149D01*
X146424351Y-73522612D01*
X146317890Y-73451478D01*
X146257487Y-73426457D01*
X146956463Y-72727482D01*
X151709500Y-72727482D01*
X151709500Y-75327517D01*
X151720000Y-75430296D01*
X151775185Y-75596832D01*
X151775187Y-75596837D01*
X151781714Y-75607419D01*
X151867288Y-75746156D01*
X151991344Y-75870212D01*
X152140665Y-75962314D01*
X152307202Y-76017499D01*
X152409990Y-76028000D01*
X152409995Y-76028000D01*
X155010005Y-76028000D01*
X155010010Y-76028000D01*
X155112798Y-76017499D01*
X155279335Y-75962314D01*
X155428656Y-75870212D01*
X155552712Y-75746156D01*
X155644814Y-75596835D01*
X155699999Y-75430298D01*
X155710500Y-75327510D01*
X155710500Y-73896405D01*
X156710000Y-73896405D01*
X156710000Y-74158594D01*
X156744220Y-74418509D01*
X156744222Y-74418520D01*
X156812075Y-74671755D01*
X156912404Y-74913971D01*
X156912409Y-74913982D01*
X157043488Y-75141016D01*
X157043494Y-75141024D01*
X157130080Y-75253865D01*
X158108958Y-74274987D01*
X158133978Y-74335390D01*
X158205112Y-74441851D01*
X158295649Y-74532388D01*
X158402110Y-74603522D01*
X158462511Y-74628541D01*
X157483633Y-75607417D01*
X157483633Y-75607418D01*
X157596475Y-75694005D01*
X157596483Y-75694011D01*
X157823517Y-75825090D01*
X157823528Y-75825095D01*
X158065744Y-75925424D01*
X158318979Y-75993277D01*
X158318990Y-75993279D01*
X158578905Y-76027499D01*
X158578920Y-76027500D01*
X158841080Y-76027500D01*
X158841094Y-76027499D01*
X159101009Y-75993279D01*
X159101020Y-75993277D01*
X159354255Y-75925424D01*
X159596471Y-75825095D01*
X159596482Y-75825090D01*
X159823516Y-75694011D01*
X159823534Y-75693999D01*
X159936365Y-75607419D01*
X159936365Y-75607417D01*
X158957488Y-74628541D01*
X159017890Y-74603522D01*
X159124351Y-74532388D01*
X159214888Y-74441851D01*
X159286022Y-74335390D01*
X159311041Y-74274989D01*
X160289917Y-75253865D01*
X160289919Y-75253865D01*
X160376499Y-75141034D01*
X160376511Y-75141016D01*
X160507590Y-74913982D01*
X160507595Y-74913971D01*
X160607924Y-74671755D01*
X160675777Y-74418520D01*
X160675779Y-74418509D01*
X160709999Y-74158594D01*
X160710000Y-74158580D01*
X160710000Y-73896419D01*
X160709999Y-73896405D01*
X160675779Y-73636490D01*
X160675777Y-73636479D01*
X160607924Y-73383244D01*
X160507595Y-73141028D01*
X160507590Y-73141017D01*
X160376511Y-72913983D01*
X160376505Y-72913975D01*
X160289918Y-72801133D01*
X160289917Y-72801133D01*
X159311041Y-73780010D01*
X159286022Y-73719610D01*
X159214888Y-73613149D01*
X159124351Y-73522612D01*
X159017890Y-73451478D01*
X158957487Y-73426457D01*
X159936365Y-72447580D01*
X159823524Y-72360994D01*
X159823516Y-72360988D01*
X159596482Y-72229909D01*
X159596471Y-72229904D01*
X159354255Y-72129575D01*
X159101020Y-72061722D01*
X159101009Y-72061720D01*
X158841094Y-72027500D01*
X158578905Y-72027500D01*
X158318990Y-72061720D01*
X158318979Y-72061722D01*
X158065744Y-72129575D01*
X157823528Y-72229904D01*
X157823517Y-72229909D01*
X157596471Y-72360996D01*
X157483633Y-72447579D01*
X157483633Y-72447580D01*
X158462511Y-73426458D01*
X158402110Y-73451478D01*
X158295649Y-73522612D01*
X158205112Y-73613149D01*
X158133978Y-73719610D01*
X158108958Y-73780011D01*
X157130080Y-72801133D01*
X157130079Y-72801133D01*
X157043496Y-72913971D01*
X156912409Y-73141017D01*
X156912404Y-73141028D01*
X156812075Y-73383244D01*
X156744222Y-73636479D01*
X156744220Y-73636490D01*
X156710000Y-73896405D01*
X155710500Y-73896405D01*
X155710500Y-72727490D01*
X155699999Y-72624702D01*
X155644814Y-72458165D01*
X155552712Y-72308844D01*
X155428656Y-72184788D01*
X155279335Y-72092686D01*
X155112798Y-72037501D01*
X155112796Y-72037500D01*
X155010017Y-72027000D01*
X155010010Y-72027000D01*
X152409990Y-72027000D01*
X152409982Y-72027000D01*
X152307203Y-72037500D01*
X152307202Y-72037501D01*
X152234114Y-72061720D01*
X152140667Y-72092685D01*
X152140662Y-72092687D01*
X151991342Y-72184789D01*
X151867289Y-72308842D01*
X151775187Y-72458162D01*
X151775185Y-72458167D01*
X151749879Y-72534537D01*
X151720001Y-72624702D01*
X151720001Y-72624703D01*
X151720000Y-72624703D01*
X151709500Y-72727482D01*
X146956463Y-72727482D01*
X147236365Y-72447580D01*
X147123524Y-72360994D01*
X147123516Y-72360988D01*
X146896482Y-72229909D01*
X146896471Y-72229904D01*
X146654255Y-72129575D01*
X146401020Y-72061722D01*
X146401009Y-72061720D01*
X146141094Y-72027500D01*
X145878905Y-72027500D01*
X145618990Y-72061720D01*
X145618979Y-72061722D01*
X145365744Y-72129575D01*
X145123528Y-72229904D01*
X145123517Y-72229909D01*
X144896471Y-72360996D01*
X144783633Y-72447579D01*
X144783633Y-72447580D01*
X145762511Y-73426458D01*
X145702110Y-73451478D01*
X145595649Y-73522612D01*
X145505112Y-73613149D01*
X145433978Y-73719610D01*
X145408958Y-73780011D01*
X144430080Y-72801133D01*
X144430079Y-72801133D01*
X144343496Y-72913971D01*
X144212409Y-73141017D01*
X144212404Y-73141028D01*
X144112075Y-73383244D01*
X144044222Y-73636479D01*
X144044220Y-73636490D01*
X144010000Y-73896405D01*
X143010500Y-73896405D01*
X143010500Y-72727490D01*
X142999999Y-72624702D01*
X142944814Y-72458165D01*
X142852712Y-72308844D01*
X142728656Y-72184788D01*
X142579335Y-72092686D01*
X142412798Y-72037501D01*
X142412796Y-72037500D01*
X142310017Y-72027000D01*
X142310010Y-72027000D01*
X139709990Y-72027000D01*
X139709982Y-72027000D01*
X139607203Y-72037500D01*
X139607202Y-72037501D01*
X139534114Y-72061720D01*
X139440667Y-72092685D01*
X139440662Y-72092687D01*
X139291342Y-72184789D01*
X139167289Y-72308842D01*
X139075187Y-72458162D01*
X139075185Y-72458167D01*
X139049879Y-72534537D01*
X139020001Y-72624702D01*
X139020001Y-72624703D01*
X139020000Y-72624703D01*
X139009500Y-72727482D01*
X123348964Y-72727482D01*
X123439794Y-72636652D01*
X123551365Y-72525080D01*
X123438524Y-72438494D01*
X123438516Y-72438488D01*
X123211482Y-72307409D01*
X123211471Y-72307404D01*
X122969255Y-72207075D01*
X122716020Y-72139222D01*
X122716009Y-72139220D01*
X122456094Y-72105000D01*
X122193905Y-72105000D01*
X121933990Y-72139220D01*
X121933979Y-72139222D01*
X121680744Y-72207075D01*
X121438528Y-72307404D01*
X121438517Y-72307409D01*
X121211471Y-72438496D01*
X121098633Y-72525079D01*
X121098633Y-72525080D01*
X122077511Y-73503958D01*
X122017110Y-73528978D01*
X121910649Y-73600112D01*
X121820112Y-73690649D01*
X121748978Y-73797110D01*
X121723958Y-73857511D01*
X120745080Y-72878633D01*
X120745079Y-72878633D01*
X120658496Y-72991471D01*
X120527409Y-73218517D01*
X120527404Y-73218528D01*
X120427075Y-73460744D01*
X120359222Y-73713979D01*
X120359220Y-73713990D01*
X120325000Y-73973905D01*
X119325500Y-73973905D01*
X119325500Y-72804990D01*
X119314999Y-72702202D01*
X119259814Y-72535665D01*
X119167712Y-72386344D01*
X119043656Y-72262288D01*
X118894335Y-72170186D01*
X118727798Y-72115001D01*
X118727796Y-72115000D01*
X118625017Y-72104500D01*
X118625010Y-72104500D01*
X116024990Y-72104500D01*
X116024982Y-72104500D01*
X115922203Y-72115000D01*
X115922202Y-72115001D01*
X115878221Y-72129575D01*
X115755667Y-72170185D01*
X115755662Y-72170187D01*
X115606342Y-72262289D01*
X115482289Y-72386342D01*
X115390187Y-72535662D01*
X115390186Y-72535665D01*
X115335001Y-72702202D01*
X115335001Y-72702203D01*
X115335000Y-72702203D01*
X115324500Y-72804982D01*
X102100500Y-72804982D01*
X102100500Y-68458711D01*
X104829500Y-68458711D01*
X104829500Y-68701288D01*
X104861161Y-68941785D01*
X104923947Y-69176104D01*
X105016773Y-69400205D01*
X105016776Y-69400212D01*
X105138064Y-69610289D01*
X105138066Y-69610292D01*
X105138067Y-69610293D01*
X105285733Y-69802736D01*
X105285739Y-69802743D01*
X105457256Y-69974260D01*
X105457262Y-69974265D01*
X105649711Y-70121936D01*
X105859788Y-70243224D01*
X106083900Y-70336054D01*
X106318211Y-70398838D01*
X106498586Y-70422584D01*
X106558711Y-70430500D01*
X106558712Y-70430500D01*
X106801289Y-70430500D01*
X106849388Y-70424167D01*
X107041789Y-70398838D01*
X107276100Y-70336054D01*
X107500212Y-70243224D01*
X107710289Y-70121936D01*
X107902738Y-69974265D01*
X108074265Y-69802738D01*
X108221936Y-69610289D01*
X108343224Y-69400212D01*
X108436054Y-69176100D01*
X108498838Y-68941789D01*
X108530500Y-68701288D01*
X108530500Y-68458712D01*
X108530500Y-68458711D01*
X170869500Y-68458711D01*
X170869500Y-68701288D01*
X170901161Y-68941785D01*
X170963947Y-69176104D01*
X171056773Y-69400205D01*
X171056776Y-69400212D01*
X171178064Y-69610289D01*
X171178066Y-69610292D01*
X171178067Y-69610293D01*
X171325733Y-69802736D01*
X171325739Y-69802743D01*
X171497256Y-69974260D01*
X171497262Y-69974265D01*
X171689711Y-70121936D01*
X171899788Y-70243224D01*
X172123900Y-70336054D01*
X172358211Y-70398838D01*
X172538586Y-70422584D01*
X172598711Y-70430500D01*
X172598712Y-70430500D01*
X172841289Y-70430500D01*
X172889388Y-70424167D01*
X173081789Y-70398838D01*
X173316100Y-70336054D01*
X173540212Y-70243224D01*
X173750289Y-70121936D01*
X173942738Y-69974265D01*
X174114265Y-69802738D01*
X174261936Y-69610289D01*
X174383224Y-69400212D01*
X174476054Y-69176100D01*
X174538838Y-68941789D01*
X174570500Y-68701288D01*
X174570500Y-68458712D01*
X174538838Y-68218211D01*
X174476054Y-67983900D01*
X174383224Y-67759788D01*
X174261936Y-67549711D01*
X174114265Y-67357262D01*
X174114260Y-67357256D01*
X173942743Y-67185739D01*
X173942736Y-67185733D01*
X173750293Y-67038067D01*
X173750292Y-67038066D01*
X173750289Y-67038064D01*
X173540212Y-66916776D01*
X173540205Y-66916773D01*
X173316104Y-66823947D01*
X173081785Y-66761161D01*
X172841289Y-66729500D01*
X172841288Y-66729500D01*
X172598712Y-66729500D01*
X172598711Y-66729500D01*
X172358214Y-66761161D01*
X172123895Y-66823947D01*
X171899794Y-66916773D01*
X171899785Y-66916777D01*
X171689706Y-67038067D01*
X171497263Y-67185733D01*
X171497256Y-67185739D01*
X171325739Y-67357256D01*
X171325733Y-67357263D01*
X171178067Y-67549706D01*
X171056777Y-67759785D01*
X171056773Y-67759794D01*
X170963947Y-67983895D01*
X170901161Y-68218214D01*
X170869500Y-68458711D01*
X108530500Y-68458711D01*
X108498838Y-68218211D01*
X108436054Y-67983900D01*
X108343224Y-67759788D01*
X108221936Y-67549711D01*
X108074265Y-67357262D01*
X108074260Y-67357256D01*
X107902743Y-67185739D01*
X107902736Y-67185733D01*
X107710293Y-67038067D01*
X107710292Y-67038066D01*
X107710289Y-67038064D01*
X107500212Y-66916776D01*
X107500205Y-66916773D01*
X107276104Y-66823947D01*
X107041785Y-66761161D01*
X106801289Y-66729500D01*
X106801288Y-66729500D01*
X106558712Y-66729500D01*
X106558711Y-66729500D01*
X106318214Y-66761161D01*
X106083895Y-66823947D01*
X105859794Y-66916773D01*
X105859785Y-66916777D01*
X105649706Y-67038067D01*
X105457263Y-67185733D01*
X105457256Y-67185739D01*
X105285739Y-67357256D01*
X105285733Y-67357263D01*
X105138067Y-67549706D01*
X105016777Y-67759785D01*
X105016773Y-67759794D01*
X104923947Y-67983895D01*
X104861161Y-68218214D01*
X104829500Y-68458711D01*
X102100500Y-68458711D01*
X102100500Y-64124500D01*
X102120185Y-64057461D01*
X102172989Y-64011706D01*
X102224500Y-64000500D01*
X177175500Y-64000500D01*
X177242539Y-64020185D01*
G37*
%TD.AperFunction*%
%TD*%
M02*
