%TF.GenerationSoftware,KiCad,Pcbnew,10.0.5*%
%TF.CreationDate,2026-08-20T01:50:03-04:00*%
%TF.ProjectId,power_distribution_circuit,706f7765-725f-4646-9973-747269627574,rev?*%
%TF.SameCoordinates,Original*%
%TF.FileFunction,Copper,L1,Top*%
%TF.FilePolarity,Positive*%
%FSLAX46Y46*%
G04 Gerber Fmt 4.6, Leading zero omitted, Abs format (unit mm)*
G04 Created by KiCad (PCBNEW 10.0.5) date 2026-08-20 01:50:03*
%MOMM*%
%LPD*%
G01*
G04 APERTURE LIST*
G04 Aperture macros list*
%AMRoundRect*
0 Rectangle with rounded corners*
0 $1 Rounding radius*
0 $2 $3 $4 $5 $6 $7 $8 $9 X,Y pos of 4 corners*
0 Add a 4 corners polygon primitive as box body*
4,1,4,$2,$3,$4,$5,$6,$7,$8,$9,$2,$3,0*
0 Add four circle primitives for the rounded corners*
1,1,$1+$1,$2,$3*
1,1,$1+$1,$4,$5*
1,1,$1+$1,$6,$7*
1,1,$1+$1,$8,$9*
0 Add four rect primitives between the rounded corners*
20,1,$1+$1,$2,$3,$4,$5,0*
20,1,$1+$1,$4,$5,$6,$7,0*
20,1,$1+$1,$6,$7,$8,$9,0*
20,1,$1+$1,$8,$9,$2,$3,0*%
G04 Aperture macros list end*
%TA.AperFunction,ComponentPad*%
%ADD10R,1.700000X1.700000*%
%TD*%
%TA.AperFunction,ComponentPad*%
%ADD11C,1.700000*%
%TD*%
%TA.AperFunction,ComponentPad*%
%ADD12RoundRect,0.249999X-1.250001X-1.250001X1.250001X-1.250001X1.250001X1.250001X-1.250001X1.250001X0*%
%TD*%
%TA.AperFunction,ComponentPad*%
%ADD13C,3.000000*%
%TD*%
%TA.AperFunction,Conductor*%
%ADD14C,2.000000*%
%TD*%
%TA.AperFunction,Conductor*%
%ADD15C,0.500000*%
%TD*%
%TA.AperFunction,Conductor*%
%ADD16C,0.250000*%
%TD*%
G04 APERTURE END LIST*
D10*
%TO.P,J9,1,Pin_1_1*%
%TO.N,/7.4V*%
X154940000Y-86360000D03*
D11*
%TO.P,J9,2,Pin_2_2*%
%TO.N,GND*%
X154940000Y-88900000D03*
%TO.P,J9,3,Pin_3_3*%
%TO.N,+3.3V*%
X154940000Y-91440000D03*
%TO.P,J9,4,Pin_4_4*%
%TO.N,GND*%
X154940000Y-93980000D03*
%TD*%
D12*
%TO.P,J3,1,Pin_1_1*%
%TO.N,/7.4V*%
X141010000Y-74027500D03*
D13*
%TO.P,J3,2,Pin_2_2*%
%TO.N,GND*%
X146010000Y-74027500D03*
%TD*%
D10*
%TO.P,J8,1,Pin_1_1*%
%TO.N,+3.3V*%
X165100000Y-104140000D03*
D11*
%TO.P,J8,2,Pin_2_2*%
%TO.N,GND*%
X165100000Y-106680000D03*
%TD*%
D12*
%TO.P,J1,1,Pin_1_1*%
%TO.N,/7.4V*%
X117325000Y-74105000D03*
D13*
%TO.P,J1,2,Pin_2_2*%
%TO.N,GND*%
X122325000Y-74105000D03*
%TD*%
D10*
%TO.P,J2,1,Pin_1_1*%
%TO.N,+3.3V*%
X121920000Y-86360000D03*
D11*
%TO.P,J2,2,Pin_2_2*%
%TO.N,/SDA*%
X121920000Y-88900000D03*
%TO.P,J2,3,Pin_3_3*%
%TO.N,/SCL*%
X121920000Y-91440000D03*
%TO.P,J2,4,Pin_4_4*%
%TO.N,GND*%
X121920000Y-93980000D03*
%TD*%
D12*
%TO.P,J4,1,Pin_1_1*%
%TO.N,/7.4V*%
X153710000Y-74027500D03*
D13*
%TO.P,J4,2,Pin_2_2*%
%TO.N,GND*%
X158710000Y-74027500D03*
%TD*%
D10*
%TO.P,J6,1,Pin_1_1*%
%TO.N,+3.3V*%
X142240000Y-86360000D03*
D11*
%TO.P,J6,2,Pin_2_2*%
%TO.N,/SDA*%
X142240000Y-88900000D03*
%TO.P,J6,3,Pin_3_3*%
%TO.N,/SCL*%
X142240000Y-91440000D03*
%TO.P,J6,4,Pin_4_4*%
%TO.N,GND*%
X142240000Y-93980000D03*
%TD*%
D10*
%TO.P,J7,1,Pin_1_1*%
%TO.N,+3.3V*%
X114300000Y-104140000D03*
D11*
%TO.P,J7,2,Pin_2_2*%
%TO.N,GND*%
X114300000Y-106680000D03*
%TD*%
D10*
%TO.P,J5,1,Pin_1_1*%
%TO.N,+3.3V*%
X132080000Y-86360000D03*
D11*
%TO.P,J5,2,Pin_2_2*%
%TO.N,/SDA*%
X132080000Y-88900000D03*
%TO.P,J5,3,Pin_3_3*%
%TO.N,/SCL*%
X132080000Y-91440000D03*
%TO.P,J5,4,Pin_4_4*%
%TO.N,GND*%
X132080000Y-93980000D03*
%TD*%
%TO.N,/7.4V*%
D14*
X141010000Y-74027500D02*
X143917500Y-71120000D01*
X153710000Y-74027500D02*
X153710000Y-85130000D01*
X150802500Y-71120000D02*
X153710000Y-74027500D01*
X143917500Y-71120000D02*
X150802500Y-71120000D01*
X138387500Y-71405000D02*
X141010000Y-74027500D01*
X117325000Y-74105000D02*
X120025000Y-71405000D01*
X153710000Y-85130000D02*
X154940000Y-86360000D01*
X120025000Y-71405000D02*
X138387500Y-71405000D01*
%TO.N,+3.3V*%
D15*
X121920000Y-86360000D02*
X114300000Y-93980000D01*
X154940000Y-91440000D02*
X165100000Y-101600000D01*
X165100000Y-101600000D02*
X165100000Y-104140000D01*
X149860000Y-86360000D02*
X154940000Y-91440000D01*
X142240000Y-86360000D02*
X149860000Y-86360000D01*
X114300000Y-93980000D02*
X114300000Y-104140000D01*
X121920000Y-86360000D02*
X132080000Y-86360000D01*
X132080000Y-86360000D02*
X142240000Y-86360000D01*
%TO.N,/SDA*%
D16*
X132080000Y-88900000D02*
X142240000Y-88900000D01*
X121920000Y-88900000D02*
X132080000Y-88900000D01*
%TO.N,/SCL*%
X132080000Y-91440000D02*
X142240000Y-91440000D01*
X121920000Y-91440000D02*
X132080000Y-91440000D01*
%TD*%
M02*
